<svg viewBox="0 0 32 32" xmlns="http://www.w3.org/2000/svg"><path d="M16 32C7.163 32 0 24.837 0 16S7.163 0 16 0s16 7.163 16 16-7.163 16-16 16zm-3.883-21.734c-1.82 0-3.117 1.484-3.117 3.555 0 2.602 1.945 3.39 5.375 4.313 2.72.734 3.196 1.156 3.196 2.07 0 .867-.844 1.328-2.063 1.328-1.523 0-2.39-.773-2.453-1.922h-4.22c.165 2.86 2.454 4.86 5.86 5.094v2.555h3.492v-2.547c2.625-.195 4.61-1.602 4.61-4.047 0-2.828-2.07-3.758-5.594-4.633-2.672-.664-2.984-1.125-2.984-1.875 0-.75.765-1.172 1.836-1.172 1.39 0 2.21.68 2.296 1.774h4.118c-.15-2.704-2.188-4.57-5.282-4.836V5h-3.492v2.516c-2.43.195-4.203 1.414-4.57 2.75z" fill="#00D632" fill-rule="evenodd"/></svg>