<svg xmlns="http://www.w3.org/2000/svg" viewBox="0 0 124 33">
  <path fill="#253b80" d="M46.211 6.749h-6.839a.95.95 0 0 0-.939.802l-2.766 17.537a.857.857 0 0 0 .846.99h3.605a.936.936 0 0 0 .927-.79l.564-3.576h3.834c4.347 0 6.64-2.115 7.373-5.894.653-2.645-.25-4.722-3.415-5.548-.82-.213-1.848-.321-3.19-.321zm2.868 6.014c-.26 1.342-1.059 2.298-3.033 2.298H42.82l.534-3.385h3.225c1.975 0 2.773.957 2.499 2.087zM64.712 6.749h-6.84a.95.95 0 0 0-.939.802l-2.766 17.537a.857.857 0 0 0 .846.99h3.606a.936.936 0 0 0 .926-.79l.564-3.576h3.834c4.348 0 6.64-2.115 7.373-5.894.653-2.645-.25-4.722-3.414-5.548-.82-.213-1.849-.321-3.19-.321zm2.868 6.014c-.26 1.342-1.059 2.298-3.033 2.298h-3.226l.534-3.385h3.225c1.975 0 2.773.957 2.499 2.087zM11.597 12.378h-3.226l.534-3.385h3.225c1.974 0 2.773.957 2.499 2.087-.26 1.342-1.059 2.298-3.032 2.298zM22.611 6.749h-7.61a.95.95 0 0 0-.94.802L11.002 26.08a.857.857 0 0 0 .846.991h3.71a.95.95 0 0 0 .939-.803l.52-3.292.67-4.246h4.275c4.348 0 6.64-2.115 7.373-5.894.653-2.645-.25-4.722-3.415-5.548-.82-.213-1.848-.321-3.19-.321zM82.85 6.749h-3.69a.95.95 0 0 0-.928.762l-3.328 15.549 1.488-6.353 3.626-9.197a.95.95 0 0 0-.885-1.298h-3.953a.95.95 0 0 0-.897.632l-5.38 14.544L66.7 7.382a.95.95 0 0 0-.897-.633h-3.832c-.754 0-1.267.822-.927 1.485l7.989 15.586-1.748 4.796a.951.951 0 0 0 .894 1.277h3.69a.95.95 0 0 0 .927-.762l8.88-21.66a.95.95 0 0 0-.826-1.222zM100.835 6.749h-6.84a.95.95 0 0 0-.938.802l-2.767 17.537a.857.857 0 0 0 .847.99h3.605a.936.936 0 0 0 .927-.79l.564-3.576h3.834c4.348 0 6.64-2.115 7.373-5.894.653-2.645-.25-4.722-3.415-5.548-.82-.213-1.849-.321-3.19-.321zm2.868 6.014c-.26 1.342-1.059 2.298-3.033 2.298h-3.226l.534-3.385h3.225c1.975 0 2.773.957 2.499 2.087zM120.068 6.749h-3.605a.936.936 0 0 0-.927.79l-2.652 16.81-1.396-16.81a.936.936 0 0 0-.926-.79h-3.606a.857.857 0 0 0-.846.99l2.766 17.537a.95.95 0 0 0 .939.802h3.605a.936.936 0 0 0 .927-.79l2.652-16.81 1.396 16.81a.936.936 0 0 0 .927.79h3.605a.857.857 0 0 0 .846-.99l-2.766-17.537a.95.95 0 0 0-.939-.802z"/>
</svg>